<svg xmlns="http://www.w3.org/2000/svg" xmlns:xlink="http://www.w3.org/1999/xlink" width="1024" height="600" viewBox="0 0 1024 600">
  <defs>
    <clipPath id="clip-path">
      <rect width="248" height="380" fill="none"/>
    </clipPath>
    <linearGradient id="linear-gradient" x2="1.186" gradientUnits="objectBoundingBox">
      <stop offset="0" stop-color="#6f3af9"/>
      <stop offset="0.216" stop-color="#5222cf"/>
      <stop offset="1" stop-color="#01f093"/>
    </linearGradient>
    <linearGradient id="linear-gradient-2" x1="0.5" y1="0.104" x2="0.5" y2="1" gradientUnits="objectBoundingBox">
      <stop offset="0" stop-color="#212121" stop-opacity="0"/>
      <stop offset="1"/>
    </linearGradient>
    <clipPath id="clip-_6_-_ShowCourse_10">
      <rect width="1024" height="600"/>
    </clipPath>
  </defs>
  <g id="_6_-_ShowCourse_10" data-name="6 - ShowCourse – 10" clip-path="url(#clip-_6_-_ShowCourse_10)">
    <rect width="1024" height="600" fill="#6f3af9"/>
    <g id="Header">
      <rect id="Rectangle_1695" data-name="Rectangle 1695" width="1024" height="40" fill="#f3f3f3"/>
      <g id="Group_162" data-name="Group 162" transform="translate(-368.5 -989.904)">
        <g id="Iconly_Light_Arrow_-_Left_2" data-name="Iconly/Light/Arrow - Left 2" transform="translate(1346.5 1002.904)">
          <g id="Arrow_-_Left_2" data-name="Arrow - Left 2" transform="translate(7) rotate(90)">
            <path id="Stroke_1" data-name="Stroke 1" d="M14,7,7,0,0,7" fill="none" stroke="#212121" stroke-linecap="round" stroke-linejoin="round" stroke-miterlimit="10" stroke-width="1.5"/>
          </g>
        </g>
        <g id="Iconly_Light_Arrow_-_Left_2-2" data-name="Iconly/Light/Arrow - Left 2" transform="translate(1345 997.904)">
          <g id="Arrow_-_Left_2-2" data-name="Arrow - Left 2" transform="translate(15.5 5) rotate(90)">
            <path id="Stroke_1-2" data-name="Stroke 1" d="M14,0,7,7,0,0" fill="none" stroke="#212121" stroke-linecap="round" stroke-linejoin="round" stroke-miterlimit="10" stroke-width="1.5"/>
          </g>
        </g>
      </g>
      <path id="Line_186" d="M14,.476H0" transform="translate(932 19.524)" fill="none" stroke="#212121" stroke-linecap="round" stroke-linejoin="round" stroke-miterlimit="10" stroke-width="1.5"/>
    </g>
    <g id="LeftBar" transform="translate(0 40)">
      <rect id="Rectangle_1683" data-name="Rectangle 1683" width="248" height="560" transform="translate(0)" fill="#f3f3f3"/>
      <g id="Group_16303" data-name="Group 16303" transform="translate(0 -40)">
        <line id="Line_2" data-name="Line 2" x2="248" transform="translate(0 128)" fill="none" stroke="rgba(111,58,249,0.25)" stroke-width="1"/>
        <path id="Rectangle_8" data-name="Rectangle 8" d="M3,0H185a3,3,0,0,1,3,3V3a0,0,0,0,1,0,0H0A0,0,0,0,1,0,3V3A3,3,0,0,1,3,0Z" transform="translate(32 125)" fill="#6f3af9"/>
        <text id="جلسه_ها" data-name="جلسه‌ها" transform="translate(126 112)" fill="#6f3af9" font-size="12" font-family="GeezaPro, Geeza Pro"><tspan x="-15.521" y="0">جلسه‌ها</tspan></text>
      </g>
      <g id="Scroll_Group_3" data-name="Scroll Group 3" transform="translate(0 88)" clip-path="url(#clip-path)" style="isolation: isolate">
        <g id="Group_16299" data-name="Group 16299" transform="translate(-16 -129)">
          <g id="Group_16291" data-name="Group 16291" transform="translate(16 129)">
            <rect id="Rectangle_7" data-name="Rectangle 7" width="248" height="37" transform="translate(0)" fill="#f3f3f3"/>
            <text id="_1._مقدمه" data-name="‏1. مقدمه" transform="translate(236 22)" fill="#212121" font-size="14" font-family="GeezaPro, Geeza Pro"><tspan x="-43.129" y="0">مقدمه</tspan><tspan y="0" font-family="Helvetica">. </tspan><tspan y="0" font-family="Helvetica">1</tspan><tspan y="0" font-family="Helvetica">‏</tspan></text>
            <text id="_00:22:32" data-name="00:22:32" transform="translate(12 22)" fill="#585858" font-size="12" font-family="Helvetica-Light, Helvetica" font-weight="300"><tspan x="0" y="0">00:22:32</tspan></text>
          </g>
          <g id="Group_16295" data-name="Group 16295" transform="translate(16 170)">
            <rect id="Rectangle_7-2" data-name="Rectangle 7" width="248" height="85" transform="translate(0)" fill="#e8e8e8"/>
            <text id="_2._مرور_اصول_رنگ_آمیزی" data-name="‏2. مرور اصول رنگ‌آمیزی" transform="translate(236 22)" fill="#212121" font-size="14" font-family="GeezaPro, Geeza Pro"><tspan x="-120.554" y="0">رنگ‌آمیزی</tspan><tspan y="0" font-family="Helvetica"> </tspan><tspan y="0">اصول</tspan><tspan y="0" font-family="Helvetica"> </tspan><tspan y="0">مرور</tspan><tspan y="0" font-family="Helvetica">. </tspan><tspan y="0" font-family="Helvetica">2</tspan><tspan y="0" font-family="Helvetica">‏</tspan></text>
            <text id="_00:36:56" data-name="00:36:56" transform="translate(12 22)" fill="#585858" font-size="12" font-family="Helvetica-Light, Helvetica" font-weight="300"><tspan x="0" y="0">00:36:56</tspan></text>
            <g id="Group_16312" data-name="Group 16312" transform="translate(0 37)">
              <rect id="Rectangle_791" data-name="Rectangle 791" width="248" height="48" fill="#01f093"/>
              <text id="بیان_جزئیات_اصول_رنگ_آمیزی" data-name="بیان جزئیات اصول رنگ‌آمیزی" transform="translate(58 15)" fill="#212121" font-size="12" font-family="GeezaPro, Geeza Pro"><tspan x="-121.062" y="11">رنگ‌آمیزی</tspan><tspan y="11" font-family="Helvetica"> </tspan><tspan y="11">اصول</tspan><tspan y="11" font-family="Helvetica"> </tspan><tspan y="11">جزئیات</tspan><tspan y="11" font-family="Helvetica"> </tspan><tspan y="11">بیان</tspan></text>
              <text id="_2" data-name="2" transform="translate(209 27)" fill="#212121" font-size="12" font-family="Helvetica"><tspan x="-6.674" y="0">2</tspan></text>
              <text id="_." data-name="." transform="translate(212 27)" fill="#212121" font-size="12" font-family="Helvetica"><tspan x="-3.334" y="0">.</tspan></text>
              <text id="_1" data-name="1" transform="translate(216 27)" fill="#212121" font-size="12" font-family="Helvetica"><tspan x="-6.674" y="0">1</tspan></text>
              <text id="_00:36:56-2" data-name="00:36:56" transform="translate(12 27)" fill="#585858" font-size="12" font-family="Helvetica-Light, Helvetica" font-weight="300"><tspan x="0" y="0">00:36:56</tspan></text>
              <g id="Iconly_Light_Voice_2" data-name="Iconly/Light/Voice 2" transform="translate(220.596 14.784)">
                <g id="Voice_2" data-name="Voice 2" transform="translate(-0.714 -0.714)">
                  <path id="Stroke_1-3" data-name="Stroke 1" d="M0,0A7.4,7.4,0,0,0,7.4,7.4a7.4,7.4,0,0,0,7.4-7.4" transform="translate(0.714 8.932)" fill="none" stroke="#212121" stroke-linecap="round" stroke-linejoin="round" stroke-miterlimit="10" stroke-width="1.5"/>
                  <path id="Stroke_3" data-name="Stroke 3" d="M.476,2.81V0" transform="translate(7.642 16.336)" fill="none" stroke="#212121" stroke-linecap="round" stroke-linejoin="round" stroke-miterlimit="10" stroke-width="1.5"/>
                  <path id="Stroke_5" data-name="Stroke 5" d="M3.912,11.87H3.66A3.66,3.66,0,0,1,0,8.21V3.66A3.661,3.661,0,0,1,3.66,0h.252a3.66,3.66,0,0,1,3.66,3.66V8.21A3.659,3.659,0,0,1,3.912,11.87Z" transform="translate(4.332 0.714)" fill="none" stroke="#212121" stroke-linecap="round" stroke-linejoin="round" stroke-miterlimit="10" stroke-width="1.5"/>
                  <path id="Stroke_7" data-name="Stroke 7" d="M0,.476H1.9" transform="translate(10.002 4.401)" fill="none" stroke="#212121" stroke-linecap="round" stroke-linejoin="round" stroke-miterlimit="10" stroke-width="1.5"/>
                  <path id="Stroke_9" data-name="Stroke 9" d="M0,.476H2.855" transform="translate(9.049 7.572)" fill="none" stroke="#212121" stroke-linecap="round" stroke-linejoin="round" stroke-miterlimit="10" stroke-width="1.5"/>
                </g>
              </g>
            </g>
          </g>
          <g id="Group_16297" data-name="Group 16297" transform="translate(16 300)">
            <rect id="Rectangle_7-3" data-name="Rectangle 7" width="248" height="37" transform="translate(0)" fill="#e8e8e8"/>
            <text id="_4._ساخت_پالت_رنگی" data-name="‏4. ساخت پالت رنگی" transform="translate(236 22)" fill="#212121" font-size="14" font-family="GeezaPro, Geeza Pro"><tspan x="-100.009" y="0">رنگی</tspan><tspan y="0" font-family="Helvetica"> </tspan><tspan y="0">پالت</tspan><tspan y="0" font-family="Helvetica"> </tspan><tspan y="0">ساخت</tspan><tspan y="0" font-family="Helvetica">. </tspan><tspan y="0" font-family="Helvetica">4</tspan><tspan y="0" font-family="Helvetica">‏</tspan></text>
            <text id="_02:58:20" data-name="02:58:20" transform="translate(12 22)" fill="#585858" font-size="12" font-family="Helvetica-Light, Helvetica" font-weight="300"><tspan x="0" y="0">02:58:20</tspan></text>
          </g>
          <g id="Group_16300" data-name="Group 16300" transform="translate(16 382)">
            <rect id="Rectangle_7-4" data-name="Rectangle 7" width="248" height="37" transform="translate(0)" fill="#e8e8e8"/>
            <text id="_6._بیسار" data-name="‏6. بیسار" transform="translate(236 22)" fill="#212121" font-size="14" font-family="GeezaPro, Geeza Pro"><tspan x="-43.983" y="0">بیسار</tspan><tspan y="0" font-family="Helvetica">. </tspan><tspan y="0" font-family="Helvetica">6</tspan><tspan y="0" font-family="Helvetica">‏</tspan></text>
            <text id="_02:58:20-2" data-name="02:58:20" transform="translate(12 22)" fill="#585858" font-size="12" font-family="Helvetica-Light, Helvetica" font-weight="300"><tspan x="0" y="0">02:58:20</tspan></text>
          </g>
          <g id="Group_16298" data-name="Group 16298" transform="translate(16 341)">
            <rect id="Rectangle_7-5" data-name="Rectangle 7" width="248" height="37" transform="translate(0)" fill="#f3f3f3"/>
            <text id="_5._بهمان" data-name="‏5. بهمان" transform="translate(236 22)" fill="#212121" font-size="14" font-family="GeezaPro, Geeza Pro"><tspan x="-43.363" y="0">بهمان</tspan><tspan y="0" font-family="Helvetica">. </tspan><tspan y="0" font-family="Helvetica">5</tspan><tspan y="0" font-family="Helvetica">‏</tspan></text>
            <text id="_02:58:20-3" data-name="02:58:20" transform="translate(12 22)" fill="#585858" font-size="12" font-family="Helvetica-Light, Helvetica" font-weight="300"><tspan x="0" y="0">02:58:20</tspan></text>
          </g>
          <g id="Group_16296" data-name="Group 16296" transform="translate(16 259)">
            <rect id="Rectangle_7-6" data-name="Rectangle 7" width="248" height="37" rx="10" transform="translate(0)" fill="#f3f3f3"/>
            <text id="_3._پردازش_رنگ_در_فلان_نرم_افزار" data-name="‏3. پردازش رنگ در فلان نرم‌افزار" transform="translate(236 22)" fill="#212121" font-size="14" font-family="GeezaPro, Geeza Pro"><tspan x="-154.092" y="0">نرم‌افزار</tspan><tspan y="0" font-family="Helvetica"> </tspan><tspan y="0">فلان</tspan><tspan y="0" font-family="Helvetica"> </tspan><tspan y="0">در</tspan><tspan y="0" font-family="Helvetica"> </tspan><tspan y="0">رنگ</tspan><tspan y="0" font-family="Helvetica"> </tspan><tspan y="0">پردازش</tspan><tspan y="0" font-family="Helvetica">. </tspan><tspan y="0" font-family="Helvetica">3</tspan><tspan y="0" font-family="Helvetica">‏</tspan></text>
            <text id="_01:47:09" data-name="01:47:09" transform="translate(12 22)" fill="#585858" font-size="12" font-family="Helvetica-Light, Helvetica" font-weight="300"><tspan x="0" y="0">01:47:09</tspan></text>
          </g>
        </g>
      </g>
      <line id="Line_128" data-name="Line 128" x2="248" transform="translate(1 468)" fill="none" stroke="rgba(111,58,249,0.25)" stroke-width="1"/>
      <g id="Group_16301" data-name="Group 16301" transform="translate(0 -40)">
        <g id="Primary-Small" transform="translate(43 520)">
          <rect id="Rectangle_68" data-name="Rectangle 68" width="162" height="28" rx="14" fill="#6f3af9"/>
          <text id="سایت_سازنده_دوره" data-name="سایت سازنده دوره" transform="translate(91 18.083)" fill="#fff" font-size="14" font-family="GeezaPro, Geeza Pro"><tspan x="-44.937" y="0">دوره</tspan><tspan y="0" font-family="Helvetica"> </tspan><tspan y="0">سازنده</tspan><tspan y="0" font-family="Helvetica"> </tspan><tspan y="0">سایت</tspan></text>
          <g id="Iconly_Light_Arrow_-_Down_2" data-name="Iconly/Light/Arrow - Down 2" transform="translate(21.832 9.042) rotate(90)">
            <g id="Arrow_-_Down_2" data-name="Arrow - Down 2">
              <path id="Stroke_1-4" data-name="Stroke 1" d="M11.083,0,5.542,5.542,0,0" fill="none" stroke="#fff" stroke-linecap="round" stroke-linejoin="round" stroke-miterlimit="10" stroke-width="1.2"/>
            </g>
          </g>
        </g>
        <g id="Secondary-Small" transform="translate(43 560)">
          <g id="Rectangle_72" data-name="Rectangle 72" fill="none" stroke="#6f3af9" stroke-width="1">
            <rect width="162" height="28" rx="14" stroke="none"/>
            <rect x="0.5" y="0.5" width="161" height="27" rx="13.5" fill="none"/>
          </g>
          <text id="صفحه_دوره_در_سایت" data-name="صفحه دوره در سایت" transform="translate(89 18.077)" fill="#6f3af9" font-size="14" font-family="GeezaPro, Geeza Pro"><tspan x="-51.072" y="0">سایت</tspan><tspan y="0" font-family="Helvetica"> </tspan><tspan y="0">در</tspan><tspan y="0" font-family="Helvetica"> </tspan><tspan y="0">دوره</tspan><tspan y="0" font-family="Helvetica"> </tspan><tspan y="0">صفحه</tspan></text>
          <g id="Iconly_Light_Arrow_-_Down_2-2" data-name="Iconly/Light/Arrow - Down 2" transform="translate(21.271 9.035) rotate(90)">
            <g id="Arrow_-_Down_2-2" data-name="Arrow - Down 2">
              <path id="Stroke_1-5" data-name="Stroke 1" d="M11.083,0,5.542,5.542,0,0" fill="none" stroke="#6f3af9" stroke-linecap="round" stroke-linejoin="round" stroke-miterlimit="10" stroke-width="1.2"/>
            </g>
          </g>
        </g>
      </g>
      <g id="Secondary-Small-2" data-name="Secondary-Small" transform="translate(20 16)">
        <g id="Rectangle_72-2" data-name="Rectangle 72" fill="none" stroke="#6f3af9" stroke-width="1">
          <rect width="104" height="28" rx="14" stroke="none"/>
          <rect x="0.5" y="0.5" width="103" height="27" rx="13.5" fill="none"/>
        </g>
        <text id="بازگشت" transform="translate(55 18.077)" fill="#6f3af9" font-size="14" font-family="GeezaPro, Geeza Pro"><tspan x="-19.722" y="0">بازگشت</tspan></text>
        <g id="Iconly_Light_Arrow_-_Left_2-3" data-name="Iconly/Light/Arrow - Left 2" transform="translate(18.5 7)">
          <g id="Arrow_-_Left_2-3" data-name="Arrow - Left 2" transform="translate(7) rotate(90)">
            <path id="Stroke_1-6" data-name="Stroke 1" d="M14,0,7,7,0,0" fill="none" stroke="#6f3af9" stroke-linecap="round" stroke-linejoin="round" stroke-miterlimit="10" stroke-width="1.5"/>
          </g>
        </g>
      </g>
    </g>
    <g id="VideoPlayer" transform="translate(249 30)">
      <path id="Screenshot_527_" data-name="Screenshot (527)" d="M0-10,774,0V560H0Z" transform="translate(0 10)" fill="url(#linear-gradient)"/>
      <g id="Group_16311" data-name="Group 16311" transform="translate(0 86)">
        <rect id="Screenshot_527_2" data-name="Screenshot (527)" width="775" height="462" transform="translate(0 22)" fill="url(#linear-gradient-2)"/>
        <g id="Group_16310" data-name="Group 16310" transform="translate(32)">
          <g id="Group_16306" data-name="Group 16306">
            <g id="Group_16304" data-name="Group 16304" transform="translate(0 369)">
              <line id="Line_129" data-name="Line 129" x2="709" transform="translate(0 4)" fill="none" stroke="#c7c7c7" stroke-linecap="round" stroke-width="1.5" opacity="0.5"/>
              <line id="Line_130" data-name="Line 130" x2="239" transform="translate(0 4)" fill="none" stroke="#c7c7c7" stroke-linecap="round" stroke-width="1.5" opacity="0.5"/>
              <line id="Line_131" data-name="Line 131" x2="215" transform="translate(0 4)" fill="none" stroke="#6f3af9" stroke-linecap="round" stroke-width="1.5"/>
              <circle id="Ellipse_361" data-name="Ellipse 361" cx="4" cy="4" r="4" transform="translate(211)" fill="#6f3af9"/>
            </g>
            <g id="Group_16305" data-name="Group 16305" transform="translate(238)">
              <text id="بیان_جزئیات_اصول_رنگ_آمیزی-2" data-name="بیان جزئیات اصول رنگ‌آمیزی" transform="translate(208 18)" fill="#fff" font-size="18" font-family="GeezaPro, Geeza Pro"><tspan x="-181.592" y="0">رنگ‌آمیزی</tspan><tspan y="0" font-family="Helvetica"> </tspan><tspan y="0">اصول</tspan><tspan y="0" font-family="Helvetica"> </tspan><tspan y="0">جزئیات</tspan><tspan y="0" font-family="Helvetica"> </tspan><tspan y="0">بیان</tspan></text>
              <text id="_2-2" data-name="2" transform="translate(222 18)" fill="#fff" font-size="18" font-family="Helvetica"><tspan x="-10.011" y="0">2</tspan></text>
              <text id="_.-2" data-name="." transform="translate(228 18)" fill="#fff" font-size="18" font-family="Helvetica"><tspan x="-5.001" y="0">.</tspan></text>
              <text id="_1-2" data-name="1" transform="translate(234 18)" fill="#fff" font-size="18" font-family="Helvetica"><tspan x="-10.011" y="0">1</tspan></text>
            </g>
            <text id="_09:14" data-name="09:14" transform="translate(0 394)" fill="#f9f9f9" font-size="12" font-family="Helvetica" letter-spacing="0.02em"><tspan x="0" y="0">09:14</tspan></text>
            <text id="_28:32" data-name="28:32" transform="translate(49 394)" fill="#f9f9f9" font-size="12" font-family="Helvetica" letter-spacing="0.02em" opacity="0.5"><tspan x="0" y="0">28:32</tspan></text>
            <text id="_" data-name="/" transform="translate(37 394)" fill="#f9f9f9" font-size="12" font-family="Helvetica" letter-spacing="0.02em" opacity="0.5"><tspan x="0" y="0">/</tspan></text>
            <g id="Iconly_Light_Plus" transform="translate(689.836 381.836)">
              <g id="Plus">
                <path id="Path_5_" d="M7.9,0H5.3C2,0,0,2.3,0,5.6V7.9" fill="none" stroke="#f9f9f9" stroke-linejoin="round" stroke-miterlimit="10" stroke-width="1.5"/>
                <path id="Path_3_" d="M20,7.9V5.6C20,2.3,18,0,14.7,0H12.1" transform="translate(-0.836)" fill="none" stroke="#f9f9f9" stroke-linejoin="round" stroke-miterlimit="10" stroke-width="1.5"/>
                <path id="Path_1_" d="M12.1,20h2.6C18,20,20,17.7,20,14.4V12" transform="translate(-0.836 -0.836)" fill="none" stroke="#f9f9f9" stroke-linejoin="round" stroke-miterlimit="10" stroke-width="1.5"/>
                <path id="Path_2_" d="M0,12v2.4C0,17.7,2,20,5.3,20H7.9" transform="translate(0 -0.836)" fill="none" stroke="#f9f9f9" stroke-linejoin="round" stroke-miterlimit="10" stroke-width="1.5"/>
              </g>
            </g>
            <g id="Group_16205" data-name="Group 16205" transform="translate(626.266 381)">
              <rect id="Rectangle_792" data-name="Rectangle 792" width="35" height="21" rx="5" fill="#eaeaea" opacity="0.48"/>
              <text id="_1.0" data-name="1.0" transform="translate(19 14)" fill="#f9f9f9" font-size="12" font-family="Helvetica" letter-spacing="0.02em"><tspan x="-17.162" y="0">1.0</tspan></text>
              <text id="X" transform="translate(29 14)" fill="#f9f9f9" font-size="12" font-family="IRANSans" letter-spacing="0.02em"><tspan x="-7.523" y="0">X</tspan></text>
            </g>
          </g>
          <g id="Group_16309" data-name="Group 16309" transform="translate(228.233 412)">
            <g id="Group_266" data-name="Group 266" transform="translate(105)">
              <circle id="Ellipse_36" data-name="Ellipse 36" cx="24" cy="24" r="24" transform="translate(-0.233)" fill="#fff" opacity="0.9"/>
              <path id="Fill_4" data-name="Fill 4" d="M6.9.532c-.083.082-.432.388-.723.675a31.27,31.27,0,0,0-5.7,8.345A6.839,6.839,0,0,0,0,11.251,2.834,2.834,0,0,0,.311,12.54a2.671,2.671,0,0,0,1.281,1.145,13.868,13.868,0,0,0,1.507.369,33.484,33.484,0,0,0,5.392.346,38.662,38.662,0,0,0,5.225-.306A11.7,11.7,0,0,0,15.6,13.6a2.571,2.571,0,0,0,1.4-2.27v-.082a7.127,7.127,0,0,0-.577-1.9A31.229,31.229,0,0,0,10.8,1.187a8.064,8.064,0,0,0-.785-.7A2.5,2.5,0,0,0,8.511,0,2.63,2.63,0,0,0,6.9.532" transform="translate(32.2 15.5) rotate(90)" fill="#6f3af9"/>
            </g>
            <g id="Group_16187" data-name="Group 16187" transform="translate(0 14)">
              <circle id="Ellipse_41" data-name="Ellipse 41" cx="10" cy="10" r="10" transform="translate(-0.233)" fill="#fff" opacity="0.9"/>
              <path id="Fill_4-2" data-name="Fill 4" d="M2.667,5.361c-.032-.032-.167-.15-.279-.261a12.087,12.087,0,0,1-2.2-3.226A2.644,2.644,0,0,1,0,1.217a1.1,1.1,0,0,1,.12-.5,1.033,1.033,0,0,1,.5-.443A5.361,5.361,0,0,1,1.2.134,12.943,12.943,0,0,1,3.282,0,14.944,14.944,0,0,1,5.3.118a4.523,4.523,0,0,1,.727.19.994.994,0,0,1,.543.878v.032a2.755,2.755,0,0,1-.223.735A12.071,12.071,0,0,1,4.176,5.107a3.117,3.117,0,0,1-.3.269.968.968,0,0,1-.583.19,1.016,1.016,0,0,1-.623-.205" transform="translate(13.733 6.714) rotate(90)" fill="#6f3af9" stroke="#6f3af9" stroke-width="1"/>
              <line id="Line_6" data-name="Line 6" y2="8.5" transform="translate(7.267 5.75)" fill="none" stroke="#6f3af9" stroke-linecap="round" stroke-width="1"/>
            </g>
            <g id="Group_16220" data-name="Group 16220" transform="translate(238 14)">
              <circle id="Ellipse_41-2" data-name="Ellipse 41" cx="10" cy="10" r="10" transform="translate(-0.233)" fill="#fff" opacity="0.9"/>
              <path id="Fill_4-3" data-name="Fill 4" d="M2.667.205c-.032.032-.167.15-.279.261a12.087,12.087,0,0,0-2.2,3.226A2.644,2.644,0,0,0,0,4.349a1.1,1.1,0,0,0,.12.5,1.033,1.033,0,0,0,.5.443,5.361,5.361,0,0,0,.583.143,12.943,12.943,0,0,0,2.084.134A14.944,14.944,0,0,0,5.3,5.448a4.523,4.523,0,0,0,.727-.19.994.994,0,0,0,.543-.878V4.349a2.755,2.755,0,0,0-.223-.735A12.071,12.071,0,0,0,4.176.459a3.117,3.117,0,0,0-.3-.269A.968.968,0,0,0,3.29,0a1.016,1.016,0,0,0-.623.205" transform="translate(11.833 6.714) rotate(90)" fill="#6f3af9" stroke="#6f3af9" stroke-width="1"/>
              <line id="Line_6-2" data-name="Line 6" y2="8.5" transform="translate(12.733 5.75)" fill="none" stroke="#6f3af9" stroke-linecap="round" stroke-width="1"/>
            </g>
            <g id="Group_16218" data-name="Group 16218" transform="translate(45 9)">
              <circle id="Ellipse_41-3" data-name="Ellipse 41" cx="15" cy="15" r="15" transform="translate(-0.233)" fill="#fff" opacity="0.9"/>
              <g id="Group_16308" data-name="Group 16308" transform="translate(4.158 3.402)">
                <g id="Layer_1">
                  <g id="Group_16237" data-name="Group 16237">
                    <path id="Path_68418" data-name="Path 68418" d="M9.466,8.233a10.843,10.843,0,1,0,7.025-2.586" transform="translate(-5.653 -4.134)" fill="none" stroke="#6f3af9" stroke-miterlimit="10" stroke-width="0.792"/>
                    <path id="Path_68419" data-name="Path 68419" d="M13.543,5.488l2.282-1.319a.256.256,0,0,1,.383.224V7.032a.256.256,0,0,1-.383.224L13.543,5.937A.26.26,0,0,1,13.543,5.488Z" transform="translate(-5.653 -4.134)" fill="#6f3af9" stroke="#6f3af9" stroke-miterlimit="10" stroke-width="0.792"/>
                  </g>
                  <g id="Group_16238" data-name="Group 16238" transform="translate(5.469 7.601)">
                    <path id="Path_68420" data-name="Path 68420" d="M12.177,20.76c0-.488,0-.989-.007-1.5s-.02-1.009-.046-1.5-.059-.983-.1-1.458-.106-.937-.185-1.366a11.977,11.977,0,0,0-.29-1.227,5.483,5.483,0,0,0-.429-1.036l1.207-.745a4.555,4.555,0,0,1,.442.877,8.786,8.786,0,0,1,.3,1c.079.35.152.712.211,1.1s.112.765.165,1.161c.04.3.066.62.092.97s.04.706.053,1.069.02.719.026,1.069.007.679.007.989v.607H12.177Z" transform="translate(-11.122 -11.735)" fill="#6f3af9"/>
                    <path id="Path_68421" data-name="Path 68421" d="M19.876,20.786a1.638,1.638,0,0,1-.778-.191,1.748,1.748,0,0,1-.594-.5,2.058,2.058,0,0,1-.64.495,1.705,1.705,0,0,1-.792.185,1.617,1.617,0,0,1-.765-.178,2.225,2.225,0,0,1-.594-.455,2.25,2.25,0,0,1-.4-.633,2.552,2.552,0,0,1-.2-.7v.007a2.051,2.051,0,0,1-.04-.29c-.007-.1-.007-.2-.007-.3a4.892,4.892,0,0,1,.04-.62c.026-.2.066-.416.112-.633a6.355,6.355,0,0,1,.27-.9,8.468,8.468,0,0,1,.416-.917c.165-.317.356-.653.567-1.009s.462-.752.732-1.181l-.224-.237,1.009-.989c.3.277.561.528.792.739s.435.409.613.587.343.343.488.5.284.317.416.482a10.921,10.921,0,0,1,.95,1.4,7.89,7.89,0,0,1,.646,1.484,4.284,4.284,0,0,1,.125.554,3.855,3.855,0,0,1-.079,1.57,2.64,2.64,0,0,1-.389.851,2.143,2.143,0,0,1-.673.613,2.059,2.059,0,0,1-.976.257h-.02ZM19.143,17.5c0,.152.007.336.026.548a3.724,3.724,0,0,0,.106.613,1.668,1.668,0,0,0,.218.5.455.455,0,0,0,.376.218.9.9,0,0,0,.369-.152,1.268,1.268,0,0,0,.3-.3,1.406,1.406,0,0,0,.2-.383,1.151,1.151,0,0,0,.073-.416,2.927,2.927,0,0,0-.033-.409,2.061,2.061,0,0,0-.079-.356,4.34,4.34,0,0,0-.455-.97,7.4,7.4,0,0,0-.627-.884c-.231-.284-.475-.554-.732-.818s-.515-.515-.765-.765a9.4,9.4,0,0,0-.574.792c-.185.29-.363.581-.521.877a9.539,9.539,0,0,0-.416.877,4.944,4.944,0,0,0-.264.8q-.049.237-.079.515a5.045,5.045,0,0,0-.033.534,1.171,1.171,0,0,0,.066.4,1.21,1.21,0,0,0,.178.33.938.938,0,0,0,.264.224.675.675,0,0,0,.323.086.5.5,0,0,0,.2-.046.726.726,0,0,0,.218-.152,1.229,1.229,0,0,0,.2-.244,1.43,1.43,0,0,0,.152-.35c.04-.145.079-.284.106-.409s.053-.244.073-.343a2.989,2.989,0,0,0,.04-.33Z" transform="translate(-11.122 -11.735)" fill="#6f3af9"/>
                  </g>
                </g>
              </g>
            </g>
            <g id="Group_16219" data-name="Group 16219" transform="translate(183 9)">
              <circle id="Ellipse_41-4" data-name="Ellipse 41" cx="15" cy="15" r="15" transform="translate(-0.233)" fill="#fff" opacity="0.9"/>
              <g id="Group_16307" data-name="Group 16307" transform="translate(4.158 3.402)">
                <g id="Layer_1-2" data-name="Layer_1">
                  <path id="Path_68414" data-name="Path 68414" d="M23.517,8.233a10.843,10.843,0,1,1-7.025-2.586" transform="translate(-5.647 -4.134)" fill="rgba(0,0,0,0)" stroke="#6f3af9" stroke-miterlimit="10" stroke-width="0.792"/>
                  <path id="Path_68415" data-name="Path 68415" d="M19.44,5.488,17.158,4.169a.256.256,0,0,0-.383.224V7.032a.256.256,0,0,0,.383.224L19.44,5.937A.26.26,0,0,0,19.44,5.488Z" transform="translate(-5.647 -4.134)" fill="#6f3af9" stroke="#6f3af9" stroke-miterlimit="10" stroke-width="0.792"/>
                  <g id="Group_16236" data-name="Group 16236" transform="translate(4.776 7.759)">
                    <path id="Path_68416" data-name="Path 68416" d="M17.593,11.894l.059.317c.02.132.046.257.066.363s.033.211.046.31.026.2.033.29.013.2.013.31a3.113,3.113,0,0,1-.139.989,2.308,2.308,0,0,1-.383.712,1.915,1.915,0,0,1-.528.435,1.414,1.414,0,0,1-.693.158,1.915,1.915,0,0,1-.317-.026,1.713,1.713,0,0,1-.35-.092,2.244,2.244,0,0,1-.356-.178,1.68,1.68,0,0,1-.33-.29l-.007.007a3.969,3.969,0,0,1-.284.29,1.457,1.457,0,0,1-.31.218,1.317,1.317,0,0,1-.35.132,1.637,1.637,0,0,1-.416.046c-.1,0-.191-.007-.284-.013a1.336,1.336,0,0,1-.244-.046v.033c.046.356.086.745.112,1.168s.053.844.066,1.273.026.851.033,1.267.007.8.007,1.148H11.584c.007-.079.007-.165.007-.264s.007-.2.007-.31.007-.2.007-.31v-.264c0-.336-.007-.693-.013-1.075s-.026-.765-.053-1.168-.066-.8-.119-1.207a11.882,11.882,0,0,0-.211-1.194,9.633,9.633,0,0,0-.323-1.121,5.745,5.745,0,0,0-.462-1l1.306-.765c.079.132.158.277.237.429a4.032,4.032,0,0,1,.2.429c.066.152.132.31.2.462.086.191.172.356.244.488a2.041,2.041,0,0,0,.218.33.684.684,0,0,0,.237.185.641.641,0,0,0,.284.059.43.43,0,0,0,.3-.112.659.659,0,0,0,.165-.29,1.813,1.813,0,0,0,.073-.409c.013-.152.02-.31.026-.462v-.158c0-.073-.007-.152-.013-.231s-.013-.158-.013-.224-.007-.125-.013-.158l1.379-.178c.007.178.013.336.026.475a3.56,3.56,0,0,0,.059.4,3.733,3.733,0,0,0,.086.369c.033.119.073.257.112.4h-.007a.9.9,0,0,0,.139.277.512.512,0,0,0,.165.139.444.444,0,0,0,.231.059.288.288,0,0,0,.29-.185,1.184,1.184,0,0,0,.079-.462,2.642,2.642,0,0,0-.026-.376c-.02-.139-.04-.27-.066-.409s-.059-.27-.086-.4-.059-.244-.086-.343Z" transform="translate(-10.423 -11.894)" fill="#6f3af9"/>
                    <path id="Path_68417" data-name="Path 68417" d="M18.147,17.765a1.975,1.975,0,0,1,.165-.8,2.106,2.106,0,0,1,.442-.66,2.016,2.016,0,0,1,.66-.449,2.062,2.062,0,0,1,1.616,0,2.087,2.087,0,0,1,.66.449,2.289,2.289,0,0,1,.449.66,1.953,1.953,0,0,1,.165.8,2.006,2.006,0,0,1-.165.811,2.088,2.088,0,0,1-.449.66,2.269,2.269,0,0,1-.66.442,1.953,1.953,0,0,1-.8.165,2.006,2.006,0,0,1-.811-.165,2.269,2.269,0,0,1-.66-.442,2.106,2.106,0,0,1-.442-.66A2.006,2.006,0,0,1,18.147,17.765Zm1.135,0a.937.937,0,0,0,.073.363,1.166,1.166,0,0,0,.2.3.9.9,0,0,0,.3.2.83.83,0,0,0,.363.073.937.937,0,0,0,.363-.073,1.166,1.166,0,0,0,.3-.2,1.036,1.036,0,0,0,.2-.3.85.85,0,0,0,.073-.363.937.937,0,0,0-.073-.363.995.995,0,0,0-.5-.5.85.85,0,0,0-.363-.073.937.937,0,0,0-.363.073,1.036,1.036,0,0,0-.3.2.9.9,0,0,0-.2.3A.937.937,0,0,0,19.282,17.765Z" transform="translate(-10.423 -11.894)" fill="#6f3af9"/>
                  </g>
                </g>
              </g>
            </g>
          </g>
        </g>
      </g>
      <g id="Group_16313" data-name="Group 16313" transform="translate(293 141)">
        <circle id="Ellipse_4" data-name="Ellipse 4" cx="102.5" cy="102.5" r="102.5" fill="rgba(255,255,255,0.03)"/>
        <circle id="Ellipse_5" data-name="Ellipse 5" cx="90.522" cy="90.522" r="90.522" transform="translate(11.978 12.171)" fill="rgba(255,255,255,0.03)"/>
        <g id="Iconly_Bold_Voice_2" data-name="Iconly/Bold/Voice 2" transform="translate(77.022 72.693)">
          <g id="Voice_2-2" data-name="Voice 2">
            <path id="Voice_2-3" data-name="Voice 2" d="M22.6,57.13V51.354a25.329,25.329,0,0,1-22.6-25,2.887,2.887,0,0,1,2.905-2.87,2.889,2.889,0,0,1,2.908,2.87,19.689,19.689,0,0,0,39.374,0,2.907,2.907,0,0,1,5.813,0,25.329,25.329,0,0,1-22.594,25V57.13a2.905,2.905,0,0,1-5.81,0Zm2.379-17.48A12.972,12.972,0,0,1,11.92,26.763V12.893A12.973,12.973,0,0,1,24.975,0h1.05A13.034,13.034,0,0,1,38.594,9.393a1.164,1.164,0,0,1-1.129,1.48h-3.4a1.848,1.848,0,0,0-1.86,1.836v0a1.848,1.848,0,0,0,1.86,1.836H37.2a1.854,1.854,0,1,1,0,3.707H34.068a1.839,1.839,0,1,0,0,3.677H37.2a1.854,1.854,0,1,1,0,3.707H34.068a1.836,1.836,0,1,0,0,3.672H37.3a1.16,1.16,0,0,1,1.115,1.517,13.041,13.041,0,0,1-12.39,8.821Z" fill="#fff"/>
          </g>
        </g>
      </g>
    </g>
  </g>
</svg>
