<svg xmlns="http://www.w3.org/2000/svg" width="30" height="30" viewBox="0 0 30 30">
  <g id="Group_16218" data-name="Group 16218" transform="translate(-0.33)">
    <circle id="Ellipse_41" data-name="Ellipse 41" cx="15" cy="15" r="15" transform="translate(0.33)" fill="#fff" opacity="0.9"/>
    <g id="Group_16308" data-name="Group 16308" transform="translate(4.467 3.402)">
      <g id="Layer_1">
        <g id="Group_16237" data-name="Group 16237">
          <path id="Path_68418" data-name="Path 68418" d="M9.466,8.233a10.843,10.843,0,1,0,7.025-2.586" transform="translate(-5.653 -4.134)" fill="none" stroke="#6f3af9" stroke-miterlimit="10" stroke-width="0.792"/>
          <path id="Path_68419" data-name="Path 68419" d="M13.543,5.488l2.282-1.319a.256.256,0,0,1,.383.224V7.032a.256.256,0,0,1-.383.224L13.543,5.937A.26.26,0,0,1,13.543,5.488Z" transform="translate(-5.653 -4.134)" fill="#6f3af9" stroke="#6f3af9" stroke-miterlimit="10" stroke-width="0.792"/>
        </g>
        <g id="Group_16238" data-name="Group 16238" transform="translate(5.469 7.601)">
          <path id="Path_68420" data-name="Path 68420" d="M12.177,20.76c0-.488,0-.989-.007-1.5s-.02-1.009-.046-1.5-.059-.983-.1-1.458-.106-.937-.185-1.366a11.977,11.977,0,0,0-.29-1.227,5.483,5.483,0,0,0-.429-1.036l1.207-.745a4.555,4.555,0,0,1,.442.877,8.786,8.786,0,0,1,.3,1c.079.35.152.712.211,1.1s.112.765.165,1.161c.04.3.066.62.092.97s.04.706.053,1.069.02.719.026,1.069.007.679.007.989v.607H12.177Z" transform="translate(-11.122 -11.735)" fill="#6f3af9"/>
          <path id="Path_68421" data-name="Path 68421" d="M19.876,20.786a1.638,1.638,0,0,1-.778-.191,1.748,1.748,0,0,1-.594-.5,2.058,2.058,0,0,1-.64.495,1.705,1.705,0,0,1-.792.185,1.617,1.617,0,0,1-.765-.178,2.225,2.225,0,0,1-.594-.455,2.25,2.25,0,0,1-.4-.633,2.552,2.552,0,0,1-.2-.7v.007a2.051,2.051,0,0,1-.04-.29c-.007-.1-.007-.2-.007-.3a4.892,4.892,0,0,1,.04-.62c.026-.2.066-.416.112-.633a6.355,6.355,0,0,1,.27-.9,8.468,8.468,0,0,1,.416-.917c.165-.317.356-.653.567-1.009s.462-.752.732-1.181l-.224-.237,1.009-.989c.3.277.561.528.792.739s.435.409.613.587.343.343.488.5.284.317.416.482a10.921,10.921,0,0,1,.95,1.4,7.89,7.89,0,0,1,.646,1.484,4.284,4.284,0,0,1,.125.554,3.855,3.855,0,0,1-.079,1.57,2.64,2.64,0,0,1-.389.851,2.143,2.143,0,0,1-.673.613,2.059,2.059,0,0,1-.976.257h-.02ZM19.143,17.5c0,.152.007.336.026.548a3.724,3.724,0,0,0,.106.613,1.668,1.668,0,0,0,.218.5.455.455,0,0,0,.376.218.9.9,0,0,0,.369-.152,1.268,1.268,0,0,0,.3-.3,1.406,1.406,0,0,0,.2-.383,1.151,1.151,0,0,0,.073-.416,2.927,2.927,0,0,0-.033-.409,2.061,2.061,0,0,0-.079-.356,4.34,4.34,0,0,0-.455-.97,7.4,7.4,0,0,0-.627-.884c-.231-.284-.475-.554-.732-.818s-.515-.515-.765-.765a9.4,9.4,0,0,0-.574.792c-.185.29-.363.581-.521.877a9.539,9.539,0,0,0-.416.877,4.944,4.944,0,0,0-.264.8q-.049.237-.079.515a5.045,5.045,0,0,0-.033.534,1.171,1.171,0,0,0,.066.4,1.21,1.21,0,0,0,.178.33.938.938,0,0,0,.264.224.675.675,0,0,0,.323.086.5.5,0,0,0,.2-.046.726.726,0,0,0,.218-.152,1.229,1.229,0,0,0,.2-.244,1.43,1.43,0,0,0,.152-.35c.04-.145.079-.284.106-.409s.053-.244.073-.343a2.989,2.989,0,0,0,.04-.33Z" transform="translate(-11.122 -11.735)" fill="#6f3af9"/>
        </g>
      </g>
    </g>
  </g>
</svg>
