<svg xmlns="http://www.w3.org/2000/svg" width="48" height="48" viewBox="0 0 48 48">
  <g id="Group_266" data-name="Group 266" transform="translate(-0.261)">
    <circle id="Ellipse_36" data-name="Ellipse 36" cx="24" cy="24" r="24" transform="translate(0.261)" fill="#fff" opacity="0.9"/>
    <path id="Fill_4" data-name="Fill 4" d="M6.9.532c-.083.082-.432.388-.723.675a31.27,31.27,0,0,0-5.7,8.345A6.839,6.839,0,0,0,0,11.251,2.834,2.834,0,0,0,.311,12.54a2.671,2.671,0,0,0,1.281,1.145,13.868,13.868,0,0,0,1.507.369,33.484,33.484,0,0,0,5.392.346,38.662,38.662,0,0,0,5.225-.306A11.7,11.7,0,0,0,15.6,13.6a2.571,2.571,0,0,0,1.4-2.27v-.082a7.127,7.127,0,0,0-.577-1.9A31.229,31.229,0,0,0,10.8,1.187a8.064,8.064,0,0,0-.785-.7A2.5,2.5,0,0,0,8.511,0,2.63,2.63,0,0,0,6.9.532" transform="translate(32.2 15.5) rotate(90)" fill="#6f3af9"/>
  </g>
</svg>
