<svg xmlns="http://www.w3.org/2000/svg" width="30" height="30" viewBox="0 0 30 30">
  <g id="Group_16219" data-name="Group 16219" transform="translate(-0.33)">
    <circle id="Ellipse_41" data-name="Ellipse 41" cx="15" cy="15" r="15" transform="translate(0.33)" fill="#fff" opacity="0.9"/>
    <g id="Group_16307" data-name="Group 16307" transform="translate(4.468 3.402)">
      <g id="Layer_1">
        <path id="Path_68414" data-name="Path 68414" d="M23.517,8.233a10.843,10.843,0,1,1-7.025-2.586" transform="translate(-5.647 -4.134)" fill="rgba(0,0,0,0)" stroke="#6f3af9" stroke-miterlimit="10" stroke-width="0.792"/>
        <path id="Path_68415" data-name="Path 68415" d="M19.44,5.488,17.158,4.169a.256.256,0,0,0-.383.224V7.032a.256.256,0,0,0,.383.224L19.44,5.937A.26.26,0,0,0,19.44,5.488Z" transform="translate(-5.647 -4.134)" fill="#6f3af9" stroke="#6f3af9" stroke-miterlimit="10" stroke-width="0.792"/>
        <g id="Group_16236" data-name="Group 16236" transform="translate(4.776 7.759)">
          <path id="Path_68416" data-name="Path 68416" d="M17.593,11.894l.059.317c.02.132.046.257.066.363s.033.211.046.31.026.2.033.29.013.2.013.31a3.113,3.113,0,0,1-.139.989,2.308,2.308,0,0,1-.383.712,1.915,1.915,0,0,1-.528.435,1.414,1.414,0,0,1-.693.158,1.915,1.915,0,0,1-.317-.026,1.713,1.713,0,0,1-.35-.092,2.244,2.244,0,0,1-.356-.178,1.68,1.68,0,0,1-.33-.29l-.007.007a3.969,3.969,0,0,1-.284.29,1.457,1.457,0,0,1-.31.218,1.317,1.317,0,0,1-.35.132,1.637,1.637,0,0,1-.416.046c-.1,0-.191-.007-.284-.013a1.336,1.336,0,0,1-.244-.046v.033c.046.356.086.745.112,1.168s.053.844.066,1.273.026.851.033,1.267.007.8.007,1.148H11.584c.007-.079.007-.165.007-.264s.007-.2.007-.31.007-.2.007-.31v-.264c0-.336-.007-.693-.013-1.075s-.026-.765-.053-1.168-.066-.8-.119-1.207a11.882,11.882,0,0,0-.211-1.194,9.633,9.633,0,0,0-.323-1.121,5.745,5.745,0,0,0-.462-1l1.306-.765c.079.132.158.277.237.429a4.032,4.032,0,0,1,.2.429c.066.152.132.31.2.462.086.191.172.356.244.488a2.041,2.041,0,0,0,.218.33.684.684,0,0,0,.237.185.641.641,0,0,0,.284.059.43.43,0,0,0,.3-.112.659.659,0,0,0,.165-.29,1.813,1.813,0,0,0,.073-.409c.013-.152.02-.31.026-.462v-.158c0-.073-.007-.152-.013-.231s-.013-.158-.013-.224-.007-.125-.013-.158l1.379-.178c.007.178.013.336.026.475a3.56,3.56,0,0,0,.059.4,3.733,3.733,0,0,0,.086.369c.033.119.073.257.112.4h-.007a.9.9,0,0,0,.139.277.512.512,0,0,0,.165.139.444.444,0,0,0,.231.059.288.288,0,0,0,.29-.185,1.184,1.184,0,0,0,.079-.462,2.642,2.642,0,0,0-.026-.376c-.02-.139-.04-.27-.066-.409s-.059-.27-.086-.4-.059-.244-.086-.343Z" transform="translate(-10.423 -11.894)" fill="#6f3af9"/>
          <path id="Path_68417" data-name="Path 68417" d="M18.147,17.765a1.975,1.975,0,0,1,.165-.8,2.106,2.106,0,0,1,.442-.66,2.016,2.016,0,0,1,.66-.449,2.062,2.062,0,0,1,1.616,0,2.087,2.087,0,0,1,.66.449,2.289,2.289,0,0,1,.449.66,1.953,1.953,0,0,1,.165.8,2.006,2.006,0,0,1-.165.811,2.088,2.088,0,0,1-.449.66,2.269,2.269,0,0,1-.66.442,1.953,1.953,0,0,1-.8.165,2.006,2.006,0,0,1-.811-.165,2.269,2.269,0,0,1-.66-.442,2.106,2.106,0,0,1-.442-.66A2.006,2.006,0,0,1,18.147,17.765Zm1.135,0a.937.937,0,0,0,.073.363,1.166,1.166,0,0,0,.2.3.9.9,0,0,0,.3.2.83.83,0,0,0,.363.073.937.937,0,0,0,.363-.073,1.166,1.166,0,0,0,.3-.2,1.036,1.036,0,0,0,.2-.3.85.85,0,0,0,.073-.363.937.937,0,0,0-.073-.363.995.995,0,0,0-.5-.5.85.85,0,0,0-.363-.073.937.937,0,0,0-.363.073,1.036,1.036,0,0,0-.3.2.9.9,0,0,0-.2.3A.937.937,0,0,0,19.282,17.765Z" transform="translate(-10.423 -11.894)" fill="#6f3af9"/>
        </g>
      </g>
    </g>
  </g>
</svg>
