<svg id="Group_16313" data-name="Group 16313" xmlns="http://www.w3.org/2000/svg" width="205" height="205" viewBox="0 0 205 205">
  <circle id="Ellipse_4" data-name="Ellipse 4" cx="102.5" cy="102.5" r="102.5" fill="rgba(255,255,255,0.03)"/>
  <circle id="Ellipse_5" data-name="Ellipse 5" cx="90.522" cy="90.522" r="90.522" transform="translate(11.978 12.171)" fill="rgba(255,255,255,0.03)"/>
  <g id="Iconly_Bold_Voice_2" data-name="Iconly/Bold/Voice 2" transform="translate(77.022 72.693)">
    <g id="Voice_2" data-name="Voice 2">
      <path id="Voice_2-2" data-name="Voice 2" d="M22.6,57.13V51.354a25.329,25.329,0,0,1-22.6-25,2.887,2.887,0,0,1,2.905-2.87,2.889,2.889,0,0,1,2.908,2.87,19.689,19.689,0,0,0,39.374,0,2.907,2.907,0,0,1,5.813,0,25.329,25.329,0,0,1-22.594,25V57.13a2.905,2.905,0,0,1-5.81,0Zm2.379-17.48A12.972,12.972,0,0,1,11.92,26.763V12.893A12.973,12.973,0,0,1,24.975,0h1.05A13.034,13.034,0,0,1,38.594,9.393a1.164,1.164,0,0,1-1.129,1.48h-3.4a1.848,1.848,0,0,0-1.86,1.836v0a1.848,1.848,0,0,0,1.86,1.836H37.2a1.854,1.854,0,1,1,0,3.707H34.068a1.839,1.839,0,1,0,0,3.677H37.2a1.854,1.854,0,1,1,0,3.707H34.068a1.836,1.836,0,1,0,0,3.672H37.3a1.16,1.16,0,0,1,1.115,1.517,13.041,13.041,0,0,1-12.39,8.821Z" fill="#fff"/>
    </g>
  </g>
</svg>
