<svg id="Iconly_Bold_Danger" data-name="Iconly/Bold/Danger" xmlns="http://www.w3.org/2000/svg" width="50" height="45" viewBox="0 0 50 45">
  <g id="Danger" transform="translate(0)">
    <path id="Danger-2" data-name="Danger" d="M43.29,45H6.7a7.821,7.821,0,0,1-2.275-.495A7.022,7.022,0,0,1,.547,40.688a6.869,6.869,0,0,1-.021-5.322l18.3-31.783a6.864,6.864,0,0,1,2.749-2.7A7.048,7.048,0,0,1,24.983,0a7.132,7.132,0,0,1,6.211,3.605l18.17,31.538a7.341,7.341,0,0,1,.625,2.5A6.883,6.883,0,0,1,48.165,42.7,7.1,7.1,0,0,1,43.29,45ZM25,30.681a2.181,2.181,0,1,0,0,4.363,2.193,2.193,0,0,0,2.173-2.207A2.167,2.167,0,0,0,25,30.681Zm0-15.455a2.181,2.181,0,0,0-2.2,2.155V24.39A2.221,2.221,0,0,0,25,26.573a2.18,2.18,0,0,0,2.173-2.182V17.382A2.167,2.167,0,0,0,25,15.226Z" fill="#f9a83a"/>
  </g>
</svg>
