<svg id="Iconly_Bold_Arrow_-_Right" data-name="Iconly/Bold/Arrow - Right" xmlns="http://www.w3.org/2000/svg" width="18" height="12" viewBox="0 0 18 12">
  <g id="Arrow_-_Right" data-name="Arrow - Right" transform="translate(0)">
    <path id="Arrow_-_Right-2" data-name="Arrow - Right" d="M9.149,11.781a1.889,1.889,0,0,1-.808-.9,9.727,9.727,0,0,1-.261-1.064A22.373,22.373,0,0,1,7.836,6.36V6.007a27.187,27.187,0,0,1,.216-3.688l.113-.544A3.886,3.886,0,0,1,8.4.992,1.814,1.814,0,0,1,10,0h.058A5.023,5.023,0,0,1,11.4.408,22.606,22.606,0,0,1,16.994,4.2l.379.4a3.481,3.481,0,0,1,.281.334A1.766,1.766,0,0,1,18,5.992a1.853,1.853,0,0,1-.375,1.138l-.39.42-.087.09a22.081,22.081,0,0,1-5.891,4.024l-.244.094a4.065,4.065,0,0,1-.955.242A2.005,2.005,0,0,1,9.149,11.781ZM0,6A1.511,1.511,0,0,1,1.5,4.482l3.7.327a1.191,1.191,0,0,1,0,2.381l-3.7.328A1.511,1.511,0,0,1,0,6Z" transform="translate(0)" fill="#212121"/>
  </g>
</svg>
